<?xml version="1.0" encoding="UTF-8"?>
<svg width="34px" height="31px" viewBox="0 0 34 31" version="1.1" xmlns="http://www.w3.org/2000/svg" xmlns:xlink="http://www.w3.org/1999/xlink">
    <!-- Generator: Sketch 52.4 (67378) - http://www.bohemiancoding.com/sketch -->
    <title>cannabis</title>
    <desc>Created with Sketch.</desc>
    <g id="Page-1" stroke="none" stroke-width="1" fill="none" fill-rule="evenodd">
        <g id="Desktop-HD" transform="translate(-195.000000, -53.000000)">
            <g id="Group-5" transform="translate(195.000000, 53.000000)">
                <g id="cannabis">
                    <path d="M28.8554414,29.9742539 C28.8554414,29.9742539 25.1458555,30.7665795 21.8305898,29.7876479 C19.7826875,29.1839496 18.4218906,28.0623576 17.6809961,27.2938957 L17.6809961,31 L16.3201328,31 L16.3201328,27.2938957 C15.5782422,28.0622924 14.2173789,29.1838844 12.1694766,29.7876479 C8.85321484,30.7665143 5.14362891,29.9742539 5.14362891,29.9742539 C5.14362891,29.9742539 7.79423438,27.3058927 11.1104961,26.3270263 C11.5667734,26.1923206 12.0089727,26.0975179 12.433707,26.0346639 C11.2832188,25.7732721 9.97010156,25.3710456 8.56355078,24.7533941 C3.80819922,22.6668237 0,19.0175097 0,19.0175097 C0,19.0175097 5.3093125,19.3677708 10.0646641,21.4543412 C11.7405586,22.1898114 13.096375,23.0299947 14.1502422,23.8113665 C12.9144219,22.4602661 11.4265234,20.5802533 9.99354297,18.1344239 C6.67216797,12.4615239 5.05730078,6.13289487 5.03286328,6.03418018 C5.09488672,6.09305691 9.85833984,10.6533628 13.1847617,16.3333046 C14.1990508,18.0666798 14.9501719,19.6821712 15.5029375,21.0911703 C15.1808008,19.2820312 14.9338359,17.0637542 14.9338359,14.5061699 C14.9338359,7.10093785 17,0 17,0 C17,0 19.0661641,7.10093785 19.0661641,14.5061699 C19.0661641,17.063689 18.8191992,19.2820312 18.4969961,21.0911703 C19.0498945,19.6821712 19.7999531,18.0666146 20.8152383,16.3333046 C24.1406641,10.6533628 28.9041836,6.09305691 28.9671367,6.03418018 C28.9427656,6.13302527 27.3267695,12.4615239 24.0065234,18.1344239 C22.5745391,20.5792101 21.0856445,22.4581797 19.8518164,23.8094104 C20.90575,23.0280386 22.2615,22.1888333 23.9354023,21.4544064 C28.2771094,19.5494867 33.0792109,19.0914479 33.883125,19.0265727 C33.9319336,19.0225954 33.9664648,19.0195961 33.984793,19.0186181 C33.9949531,19.0176401 34,19.0176401 34,19.0176401 C34,19.0176401 30.1918008,22.6668889 25.4364492,24.7533941 C24.029832,25.3710456 22.7177773,25.7732721 21.566293,26.0346639 C21.566293,26.0346639 21.5845547,26.0376632 21.6181562,26.0426185 C22.0257578,26.1054725 22.4514883,26.1973411 22.8895703,26.3270263 C24.9994297,26.9496983 26.8390156,28.2569182 27.8989922,29.1250728 C27.9325273,29.1520009 27.9650664,29.1789943 27.9966094,29.2058572 C28.2527383,29.4183481 28.4589961,29.6019548 28.6043594,29.7357477 C28.6236172,29.7536781 28.6409492,29.7697176 28.6582148,29.7866047 C28.7863125,29.9054014 28.8554414,29.9742539 28.8554414,29.9742539 Z" id="Path" fill="#4BC999"></path>
                    <g id="Group" fill="#41B787">
                        <path d="M14.150375,23.8016828 C14.7770508,23.1870882 14.8316367,22.2071366 14.2730937,21.5323004 C13.2767344,20.3283151 12.1859453,18.8296996 11.1253047,17.0214748 C9.32323828,13.9470042 8.02380078,10.6802164 7.20786719,8.3187458 C5.94415625,6.91612605 5.05942578,6.07007353 5.03299609,6.04493487 C5.05736719,6.14366597 6.67236719,12.4648655 9.99367578,18.1312227 C10.490793,18.9789034 12.7112187,22.3903361 14.150375,23.8016828 Z" id="Path"></path>
                        <path d="M18.4971289,21.0846891 C19.2103984,20.3851702 19.7793672,19.5589811 20.1826523,18.6522311 C20.6565937,17.5867038 21.236918,16.4333214 21.9470664,15.2224328 C24.2824414,11.2381513 27.3269023,7.80561765 28.9546523,6.09430042 C28.9618906,6.06642647 28.966207,6.04929832 28.9672695,6.045 C28.90425,6.10380882 24.1407969,10.658855 20.8153711,16.3322458 C20.4948945,16.8787836 18.9158203,19.7191261 18.4971289,21.0846891 Z" id="Path"></path>
                        <path d="M34,19.0134202 C34,19.0134202 30.1918008,22.6584601 25.4364492,24.7426239 C24.029832,25.359563 22.7177773,25.7613256 21.566293,26.022416 C21.566293,26.022416 21.5978359,26.0015105 21.6506289,25.964584 C22.7137266,25.2290504 23.8774297,24.6489076 25.1000352,24.2143214 C25.5757031,24.0458403 26.065582,23.8535231 26.5686094,23.6322248 C29.6551719,22.279687 32.3423008,20.2693109 33.8485273,19.0253382 C33.8607461,19.0243613 33.8728984,19.0233193 33.883125,19.0223424 C33.9319336,19.0183697 33.9664648,19.0163508 33.984793,19.0143971 C33.9949531,19.0134202 34,19.0134202 34,19.0134202 Z" id="Path"></path>
                        <path d="M12.4337734,26.022416 C12.4830469,26.0013151 12.531125,25.9690777 12.5781406,25.9287647 C13.0534766,25.5221828 12.8636211,24.7500483 12.2597891,24.5714727 C11.4552109,24.3335021 10.5943203,24.027084 9.6953125,23.6327458 C6.88632812,22.4016681 4.40844531,20.6262017 2.85015625,19.3788424 C1.14630469,19.0890315 6.640625e-05,19.0134202 6.640625e-05,19.0134202 C6.640625e-05,19.0134202 3.80826562,22.6584601 8.56361719,24.7425588 C9.42251562,25.1193782 11.6604062,25.7891996 12.4337734,26.022416 Z" id="Path"></path>
                        <path d="M28.8554414,29.9575273 C28.8554414,29.9575273 25.1458555,30.7489391 21.8305898,29.7711366 C20.3284805,29.328605 19.1962539,28.6089622 18.4076797,27.9530777 C18.1200078,27.7148466 17.8791523,27.4846261 17.6809961,27.2802605 L17.6890977,27.2723151 C17.8954219,27.0689916 18.1433828,26.9304034 18.4076797,26.8566807 C18.9097109,26.7141849 19.4697148,26.8058824 19.9118477,27.1367878 C20.6710039,27.7058592 21.6833008,28.2840483 22.9628164,28.6617794 C24.6966172,29.173084 26.5362031,29.2000462 27.899125,29.1092605 L27.9001211,29.1092605 C27.9326602,29.1361576 27.9651992,29.1631197 27.9967422,29.1899517 C28.2528711,29.4021975 28.4591953,29.5856576 28.6044922,29.7192311 C28.62375,29.7371408 28.641082,29.7531618 28.6583477,29.7700294 C28.7863125,29.8887542 28.8554414,29.9575273 28.8554414,29.9575273 Z" id="Path"></path>
                        <path d="M17.0355937,26.572666 L17.0355937,30.9822206 L16.3200664,30.9822206 L16.3200664,27.2803908 C15.5781758,28.0479013 14.2173125,29.1681996 12.1694102,29.7712668 C8.85314844,30.7490042 5.1435625,29.9576576 5.1435625,29.9576576 C5.1435625,29.9576576 5.61112891,29.4881639 6.39771094,28.8712248 C7.05832031,28.9958109 10.336,29.5360315 13.3015703,28.6619097 C15.013125,28.1564013 16.2448945,27.2923088 17.0355937,26.572666 Z" id="Path"></path>
                    </g>
                </g>
            </g>
        </g>
    </g>
</svg>