<?xml version="1.0" encoding="utf-8"?>
<!-- Generator: Adobe Illustrator 23.0.1, SVG Export Plug-In . SVG Version: 6.00 Build 0)  -->
<svg version="1.1" id="Layer_1" xmlns="http://www.w3.org/2000/svg" xmlns:xlink="http://www.w3.org/1999/xlink" x="0px" y="0px"
	 viewBox="0 0 167 31" style="enable-background:new 0 0 167 31;" xml:space="preserve">
<style type="text/css">
	.st0{enable-background:new    ;}
	.st1{fill:#063133;}
	.st2{fill-rule:evenodd;clip-rule:evenodd;fill:#41B787;}
	.st3{fill-rule:evenodd;clip-rule:evenodd;fill:#4BC999;}
</style>
<title>Group 5</title>
<desc>Created with Sketch.</desc>
<g id="Page-1">
	<g id="Desktop-HD" transform="translate(-195.000000, -53.000000)">
		<g id="Group-5" transform="translate(195.000000, 53.000000)">
			<g id="Group-4" transform="translate(14.000000, 0.000000)">
				<g class="st0">
					<path class="st1" d="M43.4,25v-8.2l-3.5,5.4h-0.1l-3.5-5.3V25h-2.7V12.4h3l3.3,5.3l3.3-5.3h3V25H43.4z"/>
					<path class="st1" d="M62.5,22c-0.3,0.7-0.6,1.3-1.1,1.8s-1.1,0.8-1.7,1.1c-0.7,0.2-1.4,0.4-2.3,0.4c-1.7,0-3-0.5-4-1.4
						c-1-0.9-1.5-2.3-1.5-4.2v-7.2h2.8v7.1c0,1,0.2,1.8,0.7,2.3c0.5,0.5,1.1,0.8,2,0.8c0.9,0,1.5-0.3,2-0.8s0.7-1.3,0.7-2.3v-7.2
						h2.8v7.1C62.9,20.5,62.8,21.3,62.5,22z"/>
					<path class="st1" d="M77.6,25l-6.1-8v8h-2.7V12.4h2.6l5.9,7.8v-7.8h2.7V25H77.6z"/>
					<path class="st1" d="M96,23.9c-0.3,0.3-0.7,0.5-1.1,0.7c-0.4,0.2-0.9,0.3-1.4,0.5c-0.5,0.1-1,0.2-1.7,0.2
						c-0.9,0-1.8-0.2-2.6-0.5c-0.8-0.3-1.5-0.8-2.1-1.4s-1-1.3-1.3-2.1s-0.5-1.6-0.5-2.5v0c0-0.9,0.2-1.7,0.5-2.5s0.8-1.5,1.3-2.1
						c0.6-0.6,1.3-1.1,2.1-1.4c0.8-0.3,1.7-0.5,2.7-0.5c0.6,0,1.1,0,1.6,0.1s0.9,0.2,1.3,0.4c0.4,0.2,0.8,0.4,1.1,0.6
						c0.3,0.2,0.6,0.5,0.9,0.8l-1.8,2c-0.5-0.4-1-0.8-1.5-1s-1.1-0.4-1.7-0.4c-0.5,0-1,0.1-1.5,0.3c-0.5,0.2-0.8,0.5-1.2,0.8
						c-0.3,0.4-0.6,0.8-0.8,1.3c-0.2,0.5-0.3,1-0.3,1.5v0c0,0.5,0.1,1,0.3,1.5c0.2,0.5,0.4,0.9,0.7,1.3c0.3,0.4,0.7,0.6,1.2,0.9
						s0.9,0.3,1.5,0.3c0.7,0,1.3-0.1,1.8-0.4c0.5-0.3,1-0.6,1.5-1.1L97,23C96.7,23.3,96.3,23.6,96,23.9z"/>
					<path class="st1" d="M110.1,25v-5.1H105V25h-2.8V12.4h2.8v5h5.1v-5h2.8V25H110.1z"/>
					<path class="st1" d="M119,25V12.4h2.8V25H119z"/>
					<path class="st1" d="M127.9,25V12.4h9.5v2.5h-6.8v2.6h5.9v2.5h-5.9v2.6h6.8V25H127.9z"/>
				</g>
				<g>
				</g>
				<g class="st0">
					<path class="st1" d="M151.8,22.9c-0.2,0.5-0.5,0.9-0.9,1.2s-0.9,0.6-1.5,0.8s-1.2,0.3-1.9,0.3c-1,0-1.9-0.2-2.8-0.5
						c-0.9-0.3-1.8-0.8-2.5-1.5l1.6-2c0.6,0.5,1.2,0.8,1.8,1.1c0.6,0.3,1.3,0.4,2,0.4c0.6,0,1-0.1,1.3-0.3c0.3-0.2,0.5-0.5,0.5-0.9
						v0c0-0.2,0-0.3-0.1-0.5s-0.2-0.3-0.4-0.4c-0.2-0.1-0.4-0.2-0.8-0.4c-0.3-0.1-0.8-0.2-1.3-0.4c-0.6-0.2-1.2-0.3-1.7-0.5
						c-0.5-0.2-1-0.4-1.3-0.7c-0.4-0.3-0.6-0.6-0.8-1.1c-0.2-0.4-0.3-0.9-0.3-1.6v0c0-0.6,0.1-1.1,0.3-1.6s0.5-0.9,0.9-1.2
						s0.8-0.6,1.4-0.8c0.5-0.2,1.1-0.3,1.8-0.3c0.9,0,1.8,0.1,2.5,0.4c0.8,0.3,1.5,0.7,2.1,1.2l-1.4,2.1c-0.6-0.4-1.1-0.7-1.7-0.9
						c-0.5-0.2-1.1-0.3-1.6-0.3s-0.9,0.1-1.2,0.3c-0.3,0.2-0.4,0.5-0.4,0.8v0c0,0.2,0,0.4,0.1,0.5s0.2,0.3,0.4,0.4
						c0.2,0.1,0.5,0.2,0.8,0.3c0.4,0.1,0.8,0.2,1.3,0.4c0.6,0.2,1.2,0.4,1.7,0.6s0.9,0.5,1.3,0.8s0.6,0.6,0.8,1
						c0.2,0.4,0.3,0.9,0.3,1.4v0C152.1,21.9,152,22.5,151.8,22.9z"/>
				</g>
				<g id="Path">
					<path class="st2" d="M1.5,21.1c0.7-0.7,1-1.6,0.9-2.6c-0.2-1.5-0.3-3.2-0.3-5.1c0-4.5,0.8-8.9,1.4-11.7C3.2,0.6,3,0,3,0
						S0.9,7.1,0.9,14.5C0.9,15.2,1,18.7,1.5,21.1z"/>
				</g>
			</g>
			<g id="cannabis">
				<g>
					<path class="st3" d="M28.9,30c0,0-3.7,0.8-7-0.2c-2-0.6-3.4-1.7-4.1-2.5V31h-1.4v-3.7c-0.7,0.8-2.1,1.9-4.2,2.5
						c-3.3,1-7,0.2-7,0.2s2.7-2.7,6-3.6c0.5-0.1,0.9-0.2,1.3-0.3c-1.2-0.3-2.5-0.7-3.9-1.3C3.8,22.7,0,19,0,19s5.3,0.4,10.1,2.4
						c1.7,0.7,3,1.6,4.1,2.4c-1.2-1.4-2.7-3.2-4.2-5.7C6.7,12.5,5.1,6.1,5,6c0.1,0.1,4.8,4.6,8.2,10.3c1,1.7,1.8,3.3,2.3,4.8
						c-0.3-1.8-0.6-4-0.6-6.6C14.9,7.1,17,0,17,0s2.1,7.1,2.1,14.5c0,2.6-0.2,4.8-0.6,6.6c0.6-1.4,1.3-3,2.3-4.8
						C24.1,10.7,28.9,6.1,29,6c0,0.1-1.6,6.4-5,12.1c-1.4,2.4-2.9,4.3-4.2,5.7c1.1-0.8,2.4-1.6,4.1-2.4c4.3-1.9,9.1-2.4,9.9-2.4
						c0,0,0.1,0,0.1,0c0,0,0,0,0,0s-3.8,3.6-8.6,5.7c-1.4,0.6-2.7,1-3.9,1.3c0,0,0,0,0.1,0c0.4,0.1,0.8,0.2,1.3,0.3
						c2.1,0.6,3.9,1.9,5,2.8c0,0,0.1,0.1,0.1,0.1c0.3,0.2,0.5,0.4,0.6,0.5c0,0,0,0,0.1,0.1C28.8,29.9,28.9,30,28.9,30z"/>
				</g>
				<g id="Group">
					<g>
						<path class="st2" d="M14.2,23.8c0.6-0.6,0.7-1.6,0.1-2.3c-1-1.2-2.1-2.7-3.1-4.5C9.3,13.9,8,10.7,7.2,8.3C5.9,6.9,5.1,6.1,5,6
							c0,0.1,1.6,6.4,5,12.1C10.5,19,12.7,22.4,14.2,23.8z"/>
					</g>
					<g>
						<path class="st2" d="M18.5,21.1c0.7-0.7,1.3-1.5,1.7-2.4c0.5-1.1,1.1-2.2,1.8-3.4c2.3-4,5.4-7.4,7-9.1c0,0,0,0,0,0
							c-0.1,0.1-4.8,4.6-8.2,10.3C20.5,16.9,18.9,19.7,18.5,21.1z"/>
					</g>
					<g>
						<path class="st2" d="M34,19c0,0-3.8,3.6-8.6,5.7c-1.4,0.6-2.7,1-3.9,1.3c0,0,0,0,0.1-0.1c1.1-0.7,2.2-1.3,3.4-1.8
							c0.5-0.2,1-0.4,1.5-0.6c3.1-1.4,5.8-3.4,7.3-4.6c0,0,0,0,0,0C33.9,19,34,19,34,19C34,19,34,19,34,19z"/>
					</g>
					<g>
						<path class="st2" d="M12.4,26c0,0,0.1-0.1,0.1-0.1c0.5-0.4,0.3-1.2-0.3-1.4c-0.8-0.2-1.7-0.5-2.6-0.9c-2.8-1.2-5.3-3-6.8-4.3
							C1.1,19.1,0,19,0,19s3.8,3.6,8.6,5.7C9.4,25.1,11.7,25.8,12.4,26z"/>
					</g>
					<g>
						<path class="st2" d="M28.9,30c0,0-3.7,0.8-7-0.2c-1.5-0.4-2.6-1.2-3.4-1.8c-0.3-0.2-0.5-0.5-0.7-0.7l0,0
							c0.2-0.2,0.5-0.3,0.7-0.4c0.5-0.1,1.1-0.1,1.5,0.3c0.8,0.6,1.8,1.1,3.1,1.5c1.7,0.5,3.6,0.5,4.9,0.4h0c0,0,0.1,0.1,0.1,0.1
							c0.3,0.2,0.5,0.4,0.6,0.5c0,0,0,0,0.1,0.1C28.8,29.9,28.9,30,28.9,30z"/>
					</g>
					<g>
						<path class="st2" d="M17,26.6V31h-0.7v-3.7c-0.7,0.8-2.1,1.9-4.2,2.5c-3.3,1-7,0.2-7,0.2s0.5-0.5,1.3-1.1
							c0.7,0.1,3.9,0.7,6.9-0.2C15,28.2,16.2,27.3,17,26.6z"/>
					</g>
				</g>
			</g>
		</g>
	</g>
</g>
</svg>
